<?xml version="1.0" standalone="no"?>
<!DOCTYPE svg PUBLIC "-//W3C//DTD SVG 20010904//EN"
 "http://www.w3.org/TR/2001/REC-SVG-20010904/DTD/svg10.dtd">
<svg version="1.0" xmlns="http://www.w3.org/2000/svg"
 width="435.000000pt" height="435.000000pt" viewBox="0 0 435.000000 435.000000"
 preserveAspectRatio="xMidYMid meet">
<metadata>
Created by potrace 1.11, written by Peter Selinger 2001-2013
</metadata>
<g transform="translate(0.000000,435.000000) scale(0.100000,-0.100000)"
fill="#000000" stroke="none">
<path d="M3960 2181 l0 -241 187 0 188 0 -115 115 -115 115 65 1 c36 1 91 1
124 0 l58 -1 -58 39 c-33 21 -111 71 -174 111 -63 40 -125 79 -137 88 l-23 14
0 -241z"/>
<path d="M1637 2396 c-89 -26 -147 -107 -152 -210 -9 -157 97 -268 241 -253
118 12 192 90 201 211 9 109 -36 198 -121 243 -37 19 -121 24 -169 9z m127
-87 c78 -36 84 -225 8 -275 -31 -20 -93 -22 -126 -5 -75 40 -81 207 -11 269
29 25 87 30 129 11z"/>
<path d="M49 2397 c-1 -1 -3 -104 -3 -229 l-2 -228 48 0 48 0 0 158 1 157 19
-55 c11 -30 36 -101 56 -157 l36 -103 38 0 c43 0 36 -13 104 185 25 72 45 123
46 115 0 -8 1 -79 1 -157 l0 -143 48 0 48 0 -1 228 -1 227 -50 3 c-92 5 -88 9
-141 -158 -29 -93 -51 -146 -55 -138 -5 7 -30 77 -56 155 l-47 141 -68 1 c-37
0 -69 -1 -69 -2z"/>
<path d="M628 2396 c0 0 -2 -103 -3 -228 l-2 -228 173 0 174 0 0 43 0 42 -120
0 c-76 -1 -121 3 -123 9 -2 6 -3 31 -2 56 l0 45 100 1 c55 1 105 2 111 3 6 1
11 17 10 38 l-1 38 -100 1 c-55 1 -105 2 -111 3 -13 1 -13 91 1 92 5 0 60 1
120 2 l110 2 0 40 0 40 -167 1 c-93 1 -169 1 -170 0z"/>
<path d="M1040 2299 c-1 -54 -1 -156 -1 -226 l0 -128 50 -3 51 -3 0 92 0 91
71 -4 c79 -4 95 -16 104 -75 18 -114 10 -103 66 -103 46 0 49 1 44 23 -7 26
-12 70 -14 110 -1 17 -13 40 -30 58 -28 28 -29 30 -10 39 41 23 59 97 35 153
-25 60 -67 74 -228 75 l-138 0 0 -99z m265 -3 c17 -23 10 -77 -12 -93 -9 -8
-46 -13 -85 -13 l-68 0 0 66 0 66 76 -4 c59 -3 79 -8 89 -22z"/>
<path d="M2140 2354 l0 -42 60 -1 c33 0 64 -2 69 -5 5 -3 9 -77 9 -163 0 -87
0 -168 1 -180 1 -21 6 -23 51 -23 l50 0 0 185 0 185 28 1 c15 1 43 0 64 -1 39
-2 51 14 43 55 -2 11 -4 23 -4 27 -1 3 -84 6 -186 6 l-185 -1 0 -43z"/>
<path d="M2570 2169 l0 -229 174 0 174 0 -1 38 c-1 20 -5 39 -8 42 -4 3 -60 5
-123 4 l-116 0 0 56 0 56 93 -1 c126 -1 129 0 125 44 l-3 36 -107 0 -108 -1 0
51 0 50 120 -2 120 -2 0 44 0 43 -170 0 -170 0 0 -229z"/>
<path d="M3098 2371 c-5 -14 -37 -97 -69 -185 -33 -87 -63 -166 -68 -175 -5
-9 -11 -28 -15 -43 -6 -28 -6 -28 43 -28 l49 0 17 50 17 50 87 0 87 0 15 -47
15 -48 53 -3 c51 -3 52 -2 45 20 -4 13 -42 115 -84 228 l-77 205 -52 1 c-48 1
-54 -1 -63 -25z m93 -176 c14 -41 22 -76 17 -77 -4 -2 -30 -1 -57 0 l-50 4 27
74 c14 41 28 74 31 74 3 0 18 -34 32 -75z"/>
<path d="M3426 2393 c-3 -3 -5 -106 -6 -229 l0 -224 48 0 47 0 0 150 c0 83 2
150 5 150 3 0 28 -66 56 -148 l51 -147 40 -3 40 -3 47 138 c26 76 51 147 56
158 5 13 9 -37 9 -138 l1 -158 47 3 48 3 0 226 0 226 -71 0 -71 0 -49 -152
c-27 -85 -51 -151 -54 -148 -3 2 -28 71 -56 151 l-50 147 -66 2 c-36 1 -69 -1
-72 -4z"/>
</g>
</svg>
